<svg width="25" height="15" viewBox="0 0 25 15" fill="none" xmlns="http://www.w3.org/2000/svg">
<path fill-rule="evenodd" clip-rule="evenodd" d="M18 0C17.4477 0 17 0.447715 17 1C17 1.55228 17.4477 2 18 2H21.5858L13.7929 9.79289L9.5 5.5C9.10948 5.10948 8.47631 5.10948 8.08579 5.5L0.585786 13C0.195261 13.3905 0.195261 14.0237 0.585786 14.4142C0.97631 14.8047 1.60948 14.8047 2 14.4142L8.79289 7.62132L13.0858 11.9142C13.4763 12.3047 14.1095 12.3047 14.5 11.9142L23 3.41421V7C23 7.55228 23.4477 8 24 8C24.5523 8 25 7.55228 25 7V1C25 0.447715 24.5523 0 24 0H18Z" fill="#096DD9"/>
</svg>
