<svg width="24" height="26" viewBox="0 0 24 26" fill="none" xmlns="http://www.w3.org/2000/svg">
<path d="M10.5 22.1H13.5V16.6725L15.9 18.7525L18 16.9L12 11.7L6 16.9L8.1375 18.72L10.5 16.6725V22.1ZM3 26C2.175 26 1.4685 25.7452 0.880502 25.2356C0.292502 24.726 -0.000997453 24.1141 2.54669e-06 23.4V2.6C2.54669e-06 1.885 0.294002 1.2727 0.882002 0.763102C1.47 0.253502 2.176 -0.000864459 3 2.20713e-06H15L24 7.8V23.4C24 24.115 23.706 24.7273 23.118 25.2369C22.53 25.7465 21.824 26.0009 21 26H3ZM13.5 9.1H21L13.5 2.6V9.1Z" fill="#096DD9"/>
</svg>
