<svg width="14" height="12" viewBox="0 0 14 12" fill="none" xmlns="http://www.w3.org/2000/svg">
    <path fill-rule="evenodd" clip-rule="evenodd" d="M7.05659 2.36369C7.60332 1.82296 7.60332 0.94627 7.05659 0.405544C6.50986 -0.135181 5.62343 -0.135181 5.0767 0.405544L0.410049 5.02093C-0.136683 5.56166 -0.136683 6.43834 0.410049 6.97907L5.0767 11.5945C5.62343 12.1352 6.50986 12.1352 7.05659 11.5945C7.60332 11.0537 7.60332 10.177 7.05659 9.63631L3.37989 6L7.05659 2.36369ZM13.59 2.36369C14.1367 1.82296 14.1367 0.94627 13.59 0.405544C13.0432 -0.135181 12.1568 -0.135181 11.6101 0.405544L6.94341 5.02093C6.39667 5.56166 6.39667 6.43834 6.94341 6.97907L11.6101 11.5945C12.1568 12.1352 13.0432 12.1352 13.59 11.5945C14.1367 11.0537 14.1367 10.177 13.59 9.63631L9.91325 6L13.59 2.36369Z" fill="#096DD9"/>
</svg>
